<?xml version="1.0" encoding="utf-8" ?><svg xmlns="http://www.w3.org/2000/svg" xmlns:xlink="http://www.w3.org/1999/xlink" width="3012" height="4096" viewBox="0 0 3012 4096"><path fill="#5029A4" transform="matrix(1 0 0 1 -1.52588e-05 0)" d="M2158.43 1136.47L2158.99 903.713C2163.66 394.662 2565.98 78.013 2897.49 30.3876C2934.38 25.0883 2975 25.975 3012 26.7016L3012 1155.08L3012 1380.15L3012 2977.98L3012 3284.89L3012 3823.98C2792.06 3818.55 2571.56 3831.91 2351.73 3814.06C2324.23 3811.83 2293.98 3811.53 2266.91 3806.07C2226.58 3801.84 2185.55 3791.34 2145.87 3781.19C1946.66 3730.26 1722.65 3598.67 1567.6 3419.21C1457.61 3293.99 1374.59 3132.43 1290.36 2976.14L1086.59 2594.05C1061.59 2546.68 982.259 2411.88 969.403 2362.59L970.673 2359.25C990.849 2344.6 1103.06 2347.52 1131.49 2348.14C1138.52 2346.48 1189.43 2348.04 1199.07 2348.11L1352.93 2348.69L1897.9 2351.37L2077.67 2352.13C2108.06 2352.13 2141.36 2354.53 2171.24 2350.62C2170.81 2325.98 2165.68 2300.76 2164.62 2275.45C2157.11 2217.16 2158.51 2143.03 2158.6 2083.41C2158.19 2069.33 2156.36 2056.62 2156.36 2041.38C2156.37 1938.76 2157.08 1835.83 2157.23 1733.21L2158.43 1136.47Z"/><defs><linearGradient id="gradient_0" gradientUnits="userSpaceOnUse" x1="2585.1086" y1="1047.5159" x2="2581.8191" y2="2078.4688"><stop offset="0" stop-color="#FF574C"/><stop offset="1" stop-color="#B620A3"/></linearGradient></defs><path fill="url(#gradient_0)" transform="matrix(1 0 0 1 -1.52588e-05 0)" d="M2158.43 1136.47L2158.99 903.713C2163.66 394.662 2565.98 78.013 2897.49 30.3876C2934.38 25.0883 2975 25.975 3012 26.7016L3012 1155.08L3012 1380.15C2995.39 1411.99 2994.39 1431.1 2983.03 1465.23C2970.76 1502.07 2953.79 1543.76 2937.11 1576.76C2809.14 1829.82 2570.12 1999.5 2350.89 2051.07C2314.36 2059.66 2275.04 2064.78 2238.08 2070.3C2212.41 2074.13 2182.99 2073.33 2158.6 2083.41C2158.19 2069.33 2156.36 2056.62 2156.36 2041.38C2156.37 1938.76 2157.08 1835.83 2157.23 1733.21L2158.43 1136.47Z"/><defs><linearGradient id="gradient_1" gradientUnits="userSpaceOnUse" x1="2582.7754" y1="34.621613" x2="2586.7605" y2="1051.0405"><stop offset="0" stop-color="#FFAD29"/><stop offset="1" stop-color="#FB5B4E"/></linearGradient></defs><path fill="url(#gradient_1)" transform="matrix(1 0 0 1 -1.52588e-05 0)" d="M2158.43 1136.47L2158.99 903.713C2163.66 394.662 2565.98 78.013 2897.49 30.3876C2934.38 25.0883 2975 25.975 3012 26.7016L3012 1155.08C3010.85 1153.37 3009.71 1151.66 3008.56 1149.95C3006.27 1127.79 3007.47 1069.31 3007.59 1050.98L2165.22 1053.06C2163.58 1072.43 2166.45 1128.41 2160.98 1139.15L2158.43 1136.47Z"/><defs><linearGradient id="gradient_2" gradientUnits="userSpaceOnUse" x1="2536.6284" y1="1761.5691" x2="3034.9729" y2="2951.6543"><stop offset="0" stop-color="#1566C5"/><stop offset="1" stop-color="#0981E3"/></linearGradient></defs><path fill="url(#gradient_2)" transform="matrix(1 0 0 1 -1.52588e-05 0)" d="M3012 1380.15L3012 2977.98C2886.47 2978.94 2771.43 2964.63 2649.05 2914.5C2474.32 2842.91 2296.17 2700.15 2210.56 2471.72C2200.36 2440.38 2190.04 2405.67 2183.31 2372.66C2176.77 2340.58 2177.02 2305.13 2164.62 2275.45C2157.11 2217.16 2158.51 2143.03 2158.6 2083.41C2182.99 2073.33 2212.41 2074.13 2238.08 2070.3C2275.04 2064.78 2314.36 2059.66 2350.89 2051.07C2570.12 1999.5 2809.14 1829.82 2937.11 1576.76C2953.79 1543.76 2970.76 1502.07 2983.03 1465.23C2994.39 1431.1 2995.39 1411.99 3012 1380.15Z"/><defs><linearGradient id="gradient_3" gradientUnits="userSpaceOnUse" x1="1012.9176" y1="2275.4292" x2="1808.6858" y2="2928.6077"><stop offset="0" stop-color="#FF0AC8"/><stop offset="1" stop-color="#9931E3"/></linearGradient></defs><path fill="url(#gradient_3)" transform="matrix(1 0 0 1 -1.52588e-05 0)" d="M1567.6 3419.21C1457.61 3293.99 1374.59 3132.43 1290.36 2976.14L1086.59 2594.05C1061.59 2546.68 982.259 2411.88 969.403 2362.59L970.673 2359.25C990.849 2344.6 1103.06 2347.52 1131.49 2348.14C1136.12 2352.85 1175.19 2351.06 1183.31 2351.06L1329.57 2350.99L1867.84 2354.35C1894.1 2354.41 1921.04 2353.67 1947.2 2355.99C1953.39 2356.54 1950.28 2403.39 1951.12 2413.47C1955.13 2461.5 1960.69 2510.4 1969.4 2557.3C1969.24 2575.74 1940.45 2632.05 1932.21 2650.12L1855.95 2815.87L1648.9 3266.61L1605.32 3361.91C1597.83 3378.55 1589.22 3400.37 1580.24 3415.33C1576.8 3421.08 1572.79 3419.45 1567.6 3419.21Z"/><defs><linearGradient id="gradient_4" gradientUnits="userSpaceOnUse" x1="1769.0144" y1="3000.1931" x2="2377.8242" y2="3514.6372"><stop offset="0" stop-color="#9931E2"/><stop offset="1" stop-color="#424EF2"/></linearGradient></defs><path fill="url(#gradient_4)" transform="matrix(1 0 0 1 -1.52588e-05 0)" d="M1969.4 2557.3C2029.06 2846.1 2185.53 3035.12 2380.62 3154.19C2386.95 3158.06 2396.17 3163.07 2401.86 3168.09C2388.12 3165.81 2376.02 3172.64 2365.59 3186.67C2360.13 3194.01 2361.8 3205.87 2355.02 3217.85C2354.71 3235.99 2355.22 3258.63 2354.51 3275.86C2343.13 3296.61 2325.61 3314.14 2333.44 3340.89C2329.74 3362.04 2327.05 3367.3 2326.73 3389.73L2324.32 3387.69L2323.13 3379.84C2316.08 3390.25 2317.63 3413.31 2322.09 3425.71C2319.85 3443.78 2313.27 3459.89 2311.6 3476.31C2308.52 3506.45 2318.71 3537.68 2299.48 3558.44C2296.92 3561.2 2298.81 3609.83 2295.71 3616.98C2289.33 3639.45 2272.1 3630.7 2285.05 3661.45L2284.95 3665.35L2282.96 3667.39C2276.68 3661.71 2277.05 3658.92 2271.77 3659.61C2258.34 3682.84 2278.88 3682.29 2256.99 3702.69C2255.99 3714.55 2254.67 3727.52 2254.28 3739.35L2245.33 3750.83C2244.91 3766.56 2244.73 3769.81 2241.58 3784.85C2248.87 3789.66 2262.89 3797.24 2266.91 3806.07C2226.58 3801.84 2185.55 3791.34 2145.87 3781.19C1946.66 3730.26 1722.65 3598.67 1567.6 3419.21C1572.79 3419.45 1576.8 3421.08 1580.24 3415.33C1589.22 3400.37 1597.83 3378.55 1605.32 3361.91L1648.9 3266.61L1855.95 2815.87L1932.21 2650.12C1940.45 2632.05 1969.24 2575.74 1969.4 2557.3Z"/><path fill="#3A4EFD" transform="matrix(1 0 0 1 -1.52588e-05 0)" d="M2355.02 3217.85C2361.8 3205.87 2360.13 3194.01 2365.59 3186.67C2376.02 3172.64 2388.12 3165.81 2401.86 3168.09C2439 3187.44 2474.59 3206.13 2512.85 3221.29C2678.11 3286.77 2841.27 3298.96 3012 3284.89L3012 3823.98C2792.06 3818.55 2571.56 3831.91 2351.73 3814.06C2324.23 3811.83 2293.98 3811.53 2266.91 3806.07C2262.89 3797.24 2248.87 3789.66 2241.58 3784.85C2244.73 3769.81 2244.91 3766.56 2245.33 3750.83L2254.28 3739.35C2254.67 3727.52 2255.99 3714.55 2256.99 3702.69C2278.88 3682.29 2258.34 3682.84 2271.77 3659.61C2277.05 3658.92 2276.68 3661.71 2282.96 3667.39L2284.95 3665.35L2285.05 3661.45C2272.1 3630.7 2289.33 3639.45 2295.71 3616.98C2298.81 3609.83 2296.92 3561.2 2299.48 3558.44C2318.71 3537.68 2308.52 3506.45 2311.6 3476.31C2313.27 3459.89 2319.85 3443.78 2322.09 3425.71C2317.63 3413.31 2316.08 3390.25 2323.13 3379.84L2324.32 3387.69L2326.73 3389.73C2327.05 3367.3 2329.74 3362.04 2333.44 3340.89C2325.61 3314.14 2343.13 3296.61 2354.51 3275.86C2355.22 3258.63 2354.71 3235.99 2355.02 3217.85Z"/><defs><linearGradient id="gradient_5" gradientUnits="userSpaceOnUse" x1="709.69403" y1="553.55035" x2="969.57733" y2="2310.1428"><stop offset="0" stop-color="#FFA825"/><stop offset="1" stop-color="#FB4361"/></linearGradient></defs><path fill="url(#gradient_5)" transform="matrix(1 0 0 1 -1.52588e-05 0)" d="M0 548.052C52.6123 531.685 104.615 535.773 158.276 535.385C281.147 534.497 405.135 541.926 526.677 567.073C535.11 568.818 572.885 575.718 578.92 579.205C627.198 587.047 688.995 610.2 735.605 628.472C1001.3 732.624 1251.1 937.025 1418.39 1240.69C1454.1 1305.5 1489.65 1371.3 1525.2 1436.7L1673.73 1705.47L1773.84 1885.3C1805.24 1940.97 1846.54 2012.1 1871.89 2072.98C1838.79 2078.37 1782.79 2076.71 1748.25 2076.78L1541.81 2076.68L874.019 2076.77L280.955 2076.59L119.135 2076.92C80.6807 2077.14 37.5296 2079.61 0 2071.96L0 724.836L0 548.052Z"/><path fill="#FFAD23" transform="matrix(1 0 0 1 -1.52588e-05 0)" d="M0 548.052C52.6123 531.685 104.615 535.773 158.276 535.385C281.147 534.497 405.135 541.926 526.677 567.073C535.11 568.818 572.885 575.718 578.92 579.205C583.291 593.374 583.225 581.978 584.864 590.9C577.66 593.842 573.148 592.657 566.043 594.683C555.999 597.548 545.88 600.744 535.871 603.866L386.359 650.112L4.46521 767.927C4.43811 755.493 4.69907 741.714 3.56254 729.486L0 724.836L0 548.052Z"/><defs><linearGradient id="gradient_6" gradientUnits="userSpaceOnUse" x1="396.89993" y1="3172.4502" x2="448.23315" y2="4045.666"><stop offset="0" stop-color="#E73B74"/><stop offset="1" stop-color="#A123BB"/></linearGradient></defs><path fill="url(#gradient_6)" transform="matrix(1 0 0 1 -1.52588e-05 0)" d="M0 2328.61C38.9529 2319.82 64.4039 2326.25 103.064 2331.3C266.92 2352.73 442.706 2442.93 577.604 2570.76C678.516 2666.39 776.292 2828.12 819.168 2985.65C830.285 3026.5 839.735 3081.16 845.025 3124.72L846.424 3136.5C883.299 3616.52 534.989 3971 226.668 4059.55C196.287 4068.28 165.699 4076.55 135.006 4082.99C120.068 4086.57 80.454 4090.24 68.7498 4096L0 4096L0 3296.71L0 2328.61Z"/><defs><linearGradient id="gradient_7" gradientUnits="userSpaceOnUse" x1="373.90979" y1="2295.6575" x2="421.59225" y2="3174.3452"><stop offset="0" stop-color="#FE6C40"/><stop offset="1" stop-color="#E33D77"/></linearGradient></defs><path fill="url(#gradient_7)" transform="matrix(1 0 0 1 -1.52588e-05 0)" d="M0 2328.61C38.9529 2319.82 64.4039 2326.25 103.064 2331.3C266.92 2352.73 442.706 2442.93 577.604 2570.76C678.516 2666.39 776.292 2828.12 819.168 2985.65C830.285 3026.5 839.735 3081.16 845.025 3124.72L846.424 3136.5C843.116 3134.37 840.334 3133.13 836.612 3133.48C796.022 3137.24 755.107 3141.58 714.55 3145.67L464.904 3170.74L174.222 3199.89C119.958 3205.28 58.9931 3209.47 5.33054 3217.78C-0.334126 3233.97 11.0529 3283.16 0 3296.71L0 2328.61Z"/></svg>